<svg xmlns="http://www.w3.org/2000/svg" viewBox="0 0 228 80" width="228" height="80"><defs><style>.cls-1{fill:#7cc734;}.cls-1,.cls-2,.cls-3{fill-rule:evenodd;}.cls-2{fill:#3e7fca;}.cls-3{fill:#eb6e2e;}.cls-4{fill:#6900e9;}.cls-5{fill:#fff;}.cls-6{fill:#ef3b2d;}</style></defs><title>Laravel Bridge yii</title><g id="g4179"><g id="g4185"><path id="path4187" class="cls-1" d="M200.73,22.39c-3.68-10.64,7.09-22,16-22.39,5.32,2.77,9.88,10.05,9.65,19.92-.7,12.16-9.3,22.65-18.67,32.31-.52-11.78-3-19.29-6.93-29.84"/></g><g id="g4189"><path id="path4191" class="cls-2" d="M179.84,80c-1.49-11.88,3.33-22,8.12-28.19a58.45,58.45,0,0,0,5.35-8c2.52,1.09,9.28,4.63,13,10.39-.54,8.35-6.71,23.55-26.47,25.78"/></g><g id="g4193"><path id="path4195" class="cls-3" d="M172.37,34.89c-15.73-4.4-19.61-18.21-18.91-27.51,15.28-6.19,31.71.15,41.2,13.37a65.61,65.61,0,0,1,11.67,31.51c-4.57-6-10.33-9.52-17.68-12.25-5-1.87-9.66-3.11-16.28-5.12"/></g></g><circle class="cls-4" cx="114" cy="40" r="25"/><path class="cls-5" d="M127.36,32.33a18.67,18.67,0,0,1-1.55-5.44V26.5a1.69,1.69,0,1,0-3.37,0v.39a18.76,18.76,0,0,1-1.55,5.44c-1.56,3.28-3.88,5-6.89,5s-5.33-1.67-6.89-5a19.17,19.17,0,0,1-1.53-5.28,1.35,1.35,0,0,0,0-.35v-.2a1.69,1.69,0,1,0-3.37,0V27h0v.11c-.17,1.27-1.14,7.13-5.07,9.35V50.69h5.07V53.5a1.69,1.69,0,1,0,3.37,0V50.69h16.88V53.5a1.69,1.69,0,1,0,3.37,0V50.69h5.06V36.43A8.93,8.93,0,0,1,127.36,32.33Zm-25.17,15H100.5V38.17a11.51,11.51,0,0,0,1.69-1.84Zm5,0h-1.67v-11a11.77,11.77,0,0,0,1.67,1.83Zm5.08,0H110.6v-7.2a9.71,9.71,0,0,0,1.71.42Zm5,0h-1.66V40.53a10.05,10.05,0,0,0,1.66-.4Zm5.09,0h-1.71V38.18a12.34,12.34,0,0,0,1.71-1.87Zm5.06,0h-1.69v-11a11.59,11.59,0,0,0,1.69,1.85Z"/><path class="cls-6" d="M75.88,18.66s0-.08,0-.12,0-.13-.09-.21,0-.08-.08-.12l-.12-.13s-.08,0-.13-.08l-.12-.12h0L60.65,9.44a1.34,1.34,0,0,0-1.23,0L44.77,17.88h0l-.12.12s-.08,0-.12.08l-.13.13s0,.08-.08.12,0,.12-.08.21,0,.08,0,.12a.83.83,0,0,0,0,.33V35l-12.22,7V10.68a.93.93,0,0,0,0-.33s0-.08,0-.12-.05-.13-.09-.21,0-.08-.08-.12l-.12-.13s-.08,0-.13-.08l-.12-.12h0L16.67,1.13a1.34,1.34,0,0,0-1.23,0L.79,9.57h0l-.12.12s-.08,0-.12.08L.42,9.9s0,.08-.08.12,0,.12-.08.21,0,.08,0,.12a.83.83,0,0,0,0,.33V60.91A1.26,1.26,0,0,0,.79,62L30.13,78.85l.2.08s0,0,.09,0a.78.78,0,0,0,.32,0,.91.91,0,0,0,.33,0s0,0,.09,0,.16,0,.2-.08L60.7,62a1.21,1.21,0,0,0,.61-1.07v-16l14.07-8.11A1.22,1.22,0,0,0,76,35.69V19A1.1,1.1,0,0,1,75.88,18.66ZM30.7,59.51,18.53,52.6l12.79-7.36h0l14.07-8.11,12.22,7-9,5.1ZM58.8,28.12V42l-5.14-3L46.58,35V21.09l5.15,3ZM60,12l12.22,7L60,26,47.82,19ZM22.39,47.54l-5.14,3V19.85l7.08-4.07,5.14-3V43.47ZM16.06,3.64l12.22,7-12.22,7-12.22-7ZM2.6,12.82l5.15,3,7.07,4.07V52.64h0v.13a.24.24,0,0,0,0,.16h0s.05.08.05.12,0,.13.08.17h0s0,.08.08.12,0,.08.08.13h0s.08,0,.13.08.08.08.12.08h0l14,7.94V75.64L2.6,60.21V12.82ZM58.8,60.21,31.9,75.68V61.61L51.81,50.26l7-4ZM73.49,35l-12.22,7V28.16l7.08-4.07,5.14-3Z"/></svg>